<?xml version="1.0" encoding="utf-8"?>
<!-- Generator: Adobe Illustrator 17.0.0, SVG Export Plug-In . SVG Version: 6.00 Build 0)  -->
<!DOCTYPE svg PUBLIC "-//W3C//DTD SVG 1.1//EN" "http://www.w3.org/Graphics/SVG/1.1/DTD/svg11.dtd">
<svg version="1.1" id="Heart" xmlns="http://www.w3.org/2000/svg" xmlns:xlink="http://www.w3.org/1999/xlink" x="0px" y="0px"
	 width="425px" height="350px" viewBox="0 0 425 350" enable-background="new 0 0 425 350" xml:space="preserve">
<g>
	<polygon fill="#FF33B1" points="150,18.75 150,81.25 212.5,81.25 	"/>
	<polygon fill="#FF009D" points="337.5,18.75 337.5,81.25 400,81.25 	"/>
	<polygon fill="#FF99D8" points="212.5,81.25 275,81.25 275,18.75 	"/>
	<polygon fill="#FFCCEC" points="25,81.25 87.5,81.25 87.5,18.75 	"/>
	<polygon fill="#FF009D" points="275,81.25 337.5,81.25 337.5,18.75 	"/>
	<polygon fill="#FF66C4" points="275,81.25 275,18.75 337.5,18.75 	"/>
	<polygon fill="#FF99D8" points="87.5,18.75 87.5,81.25 150,81.25 	"/>
	<polygon fill="#FF66C4" points="150,81.25 150,18.75 87.5,18.75 	"/>
	<polygon fill="#FF009D" points="150,81.25 150,143.75 212.5,143.75 	"/>
	<polygon fill="#FF009D" points="212.5,143.75 275,143.75 275,81.25 	"/>
	<polygon fill="#FF009D" points="212.5,143.75 212.5,81.25 275,81.25 	"/>
	<polygon fill="#FF009D" points="275,143.75 337.5,143.75 337.5,81.25 	"/>
	<polygon fill="#FF66C4" points="275,143.75 275,81.25 337.5,81.25 	"/>
	<polygon fill="#FF33B1" points="337.5,143.75 400,143.75 400,81.25 	"/>
	<polygon fill="#FF33B1" points="337.5,143.75 337.5,81.25 400,81.25 	"/>
	<polygon fill="#FF009D" points="337.5,206.25 337.5,143.75 400,143.75 	"/>
	<polygon fill="#FF009D" points="275,206.25 337.5,206.25 337.5,143.75 	"/>
	<polygon fill="#FF33B1" points="275,206.25 275,143.75 337.5,143.75 	"/>
	<polygon fill="#FF33B1" points="275,268.75 275,206.25 337.5,206.25 	"/>
	<polygon fill="#FF66C4" points="212.5,143.75 212.5,81.25 150,81.25 	"/>
	<polygon fill="#FF66C4" points="87.5,81.25 87.5,143.75 150,143.75 	"/>
	<polygon fill="#FF33B1" points="150,143.75 150,81.25 87.5,81.25 	"/>
	<polygon fill="#FF66C4" points="25,81.25 25,143.75 87.5,143.75 	"/>
	<polygon fill="#FF33B1" points="87.5,143.75 87.5,81.25 25,81.25 	"/>
	<polygon fill="#FF99D8" points="87.5,143.75 87.5,206.25 150,206.25 	"/>
	<polygon fill="#FF66C4" points="150,206.25 150,143.75 87.5,143.75 	"/>
	<polygon fill="#FF33B1" points="87.5,206.25 87.5,143.75 25,143.75 	"/>
	<polygon fill="#FF99D8" points="150,268.75 150,206.25 87.5,206.25 	"/>
	<polygon fill="#FF66C4" points="150,143.75 150,206.25 212.5,206.25 	"/>
	<polygon fill="#FF33B1" points="212.5,206.25 275,206.25 275,143.75 	"/>
	<polygon fill="#FF009D" points="212.5,206.25 212.5,143.75 275,143.75 	"/>
	<polygon fill="#FF33B1" points="212.5,206.25 212.5,143.75 150,143.75 	"/>
	<polygon fill="#FF66C4" points="150,206.25 150,268.75 212.5,268.75 	"/>
	<polygon fill="#FF009D" points="212.5,268.75 275,268.75 275,206.25 	"/>
	<polygon fill="#FF33B1" points="212.5,268.75 212.5,206.25 275,206.25 	"/>
	<polygon fill="#FF009D" points="212.5,268.75 212.5,206.25 150,206.25 	"/>
	<polygon fill="#FF009D" points="212.5,331.25 212.5,268.75 275,268.75 	"/>
	<polygon fill="#FFCCEC" points="212.5,331.25 212.5,268.75 150,268.75 	"/>
</g>
</svg>
