<?xml version="1.0" encoding="utf-8"?>
<!-- Generator: Adobe Illustrator 18.0.0, SVG Export Plug-In . SVG Version: 6.00 Build 0)  -->
<!DOCTYPE svg PUBLIC "-//W3C//DTD SVG 1.1//EN" "http://www.w3.org/Graphics/SVG/1.1/DTD/svg11.dtd">
<svg version="1.1" id="Heart" xmlns="http://www.w3.org/2000/svg" xmlns:xlink="http://www.w3.org/1999/xlink" x="0px" y="0px"
	 viewBox="0 0 425 350" enable-background="new 0 0 425 350" xml:space="preserve">
<g>
	<polygon fill="#FF33B1" points="150,18.7 150,81.2 212.5,81.2 	"/>
	<polygon fill="#FF009D" points="337.5,18.7 337.5,81.2 400,81.2 	"/>
	<polygon fill="#FF9EDA" points="212.5,81.2 275,81.2 275,18.7 	"/>
	<polygon fill="#FFB5E4" points="25,81.2 87.5,81.2 87.5,18.7 	"/>
	<polygon fill="#FF009D" points="275,81.2 337.5,81.2 337.5,18.7 	"/>
	<polygon fill="#FF66C4" points="275,81.2 275,18.7 337.5,18.7 	"/>
	<polygon fill="#FF99D8" points="87.5,18.7 87.5,81.2 150,81.2 	"/>
	<polygon fill="#FF66C4" points="150,81.2 150,18.7 87.5,18.7 	"/>
	<polygon fill="#FF009D" points="150,81.2 150,143.8 212.5,143.8 	"/>
	<polygon fill="#FF009D" points="212.5,143.8 275,143.8 275,81.2 	"/>
	<polygon fill="#FF2AAD" points="212.5,143.8 212.5,81.2 275,81.2 	"/>
	<polygon fill="#FF009D" points="275,143.8 337.5,143.8 337.5,81.2 	"/>
	<polygon fill="#FF66C4" points="275,143.8 275,81.2 337.5,81.2 	"/>
	<polygon fill="#FF33B1" points="337.5,143.8 400,143.8 400,81.2 	"/>
	<polygon fill="#FF33B1" points="337.5,143.8 337.5,81.2 400,81.2 	"/>
	<polygon fill="#FF009D" points="337.5,206.2 337.5,143.8 400,143.8 	"/>
	<polygon fill="#FF009D" points="275,206.2 337.5,206.2 337.5,143.8 	"/>
	<polygon fill="#FF33B1" points="275,206.2 275,143.8 337.5,143.8 	"/>
	<polygon fill="#FF33B1" points="275,268.7 275,206.2 337.5,206.2 	"/>
	<polygon fill="#FF66C4" points="212.5,143.8 212.5,81.2 150,81.2 	"/>
	<polygon fill="#FF66C4" points="87.5,81.2 87.5,143.8 150,143.8 	"/>
	<polygon fill="#FF33B1" points="150,143.8 150,81.2 87.5,81.2 	"/>
	<polygon fill="#FF66C4" points="25,81.2 25,143.8 87.5,143.8 	"/>
	<polygon fill="#FF33B1" points="87.5,143.8 87.5,81.2 25,81.2 	"/>
	<polygon fill="#FF9EDA" points="87.5,143.8 87.5,206.2 150,206.2 	"/>
	<polygon fill="#FF66C4" points="150,206.2 150,143.8 87.5,143.8 	"/>
	<polygon fill="#FF33B1" points="87.5,206.2 87.5,143.8 25,143.8 	"/>
	<polygon fill="#FF9EDA" points="150,268.7 150,206.2 87.5,206.2 	"/>
	<polygon fill="#FF66C4" points="150,143.8 150,206.2 212.5,206.2 	"/>
	<polygon fill="#FF33B1" points="212.5,206.2 275,206.2 275,143.8 	"/>
	<polygon fill="#FF009D" points="212.5,206.2 212.5,143.8 275,143.8 	"/>
	<polygon fill="#FF33B1" points="212.5,206.2 212.5,143.8 150,143.8 	"/>
	<polygon fill="#FF66C4" points="150,206.2 150,268.7 212.5,268.7 	"/>
	<polygon fill="#FF009D" points="212.5,268.7 275,268.7 275,206.2 	"/>
	<polygon fill="#FF33B1" points="212.5,268.7 212.5,206.2 275,206.2 	"/>
	<polygon fill="#FF009D" points="212.5,268.7 212.5,206.2 150,206.2 	"/>
	<polygon fill="#FF009D" points="212.5,331.3 212.5,268.7 275,268.7 	"/>
	<polygon fill="#FF99D8" points="212.5,331.3 212.5,268.7 150,268.7 	"/>
</g>
</svg>
