<?xml version="1.0" encoding="utf-8"?>
<!-- Generator: Adobe Illustrator 17.0.0, SVG Export Plug-In . SVG Version: 6.00 Build 0)  -->
<!DOCTYPE svg PUBLIC "-//W3C//DTD SVG 1.1//EN" "http://www.w3.org/Graphics/SVG/1.1/DTD/svg11.dtd">
<svg version="1.1" id="Heart" xmlns="http://www.w3.org/2000/svg" xmlns:xlink="http://www.w3.org/1999/xlink" x="0px" y="0px"
	 width="425px" height="350px" viewBox="0 0 425 350" enable-background="new 0 0 425 350" xml:space="preserve">
<g>
	<polygon fill="#FF33B1" points="149.999,19 149.999,81.401 212.5,81.401 	"/>
	<polygon fill="#FF009D" points="337.501,19 337.501,81.401 400,81.401 	"/>
	<polygon fill="#FF9EDA" points="212.5,81.401 275,81.401 275,19 	"/>
	<polygon fill="#FFB5E4" points="25,81.401 87.5,81.401 87.5,19 	"/>
	<polygon fill="#FF009D" points="275,81.401 337.501,81.401 337.501,19 	"/>
	<polygon fill="#FF66C4" points="275,81.401 275,19 337.501,19 	"/>
	<polygon fill="#FF99D8" points="87.5,19 87.5,81.401 149.999,81.401 	"/>
	<polygon fill="#FF66C4" points="149.999,81.401 149.999,19 87.5,19 	"/>
	<polygon fill="#FF009D" points="149.999,81.401 149.999,143.801 212.5,143.801 	"/>
	<polygon fill="#FF009D" points="212.5,143.801 275,143.801 275,81.401 	"/>
	<polygon fill="#FF2AAD" points="212.5,143.801 212.5,81.401 275,81.401 	"/>
	<polygon fill="#FF009D" points="275,143.801 337.501,143.801 337.501,81.401 	"/>
	<polygon fill="#FF66C4" points="275,143.801 275,81.401 337.501,81.401 	"/>
	<polygon fill="#FF33B1" points="337.501,143.801 400,143.801 400,81.401 	"/>
	<polygon fill="#FF33B1" points="337.501,143.801 337.501,81.401 400,81.401 	"/>
	<polygon fill="#FF009D" points="337.501,206.199 337.501,143.801 400,143.801 	"/>
	<polygon fill="#FF009D" points="275,206.199 337.501,206.199 337.501,143.801 	"/>
	<polygon fill="#FF33B1" points="275,206.199 275,143.801 337.501,143.801 	"/>
	<polygon fill="#FF33B1" points="275,268.598 275,206.199 337.501,206.199 	"/>
	<polygon fill="#FF66C4" points="212.5,143.801 212.5,81.401 149.999,81.401 	"/>
	<polygon fill="#FF66C4" points="87.5,81.401 87.5,143.801 149.999,143.801 	"/>
	<polygon fill="#FF33B1" points="149.999,143.801 149.999,81.401 87.5,81.401 	"/>
	<polygon fill="#FF66C4" points="25,81.401 25,143.801 87.5,143.801 	"/>
	<polygon fill="#FF33B1" points="87.5,143.801 87.5,81.401 25,81.401 	"/>
	<polygon fill="#FF9EDA" points="87.5,143.801 87.5,206.199 149.999,206.199 	"/>
	<polygon fill="#FF66C4" points="149.999,206.199 149.999,143.801 87.5,143.801 	"/>
	<polygon fill="#FF33B1" points="87.5,206.199 87.5,143.801 25,143.801 	"/>
	<polygon fill="#FF9EDA" points="149.999,268.598 149.999,206.199 87.5,206.199 	"/>
	<polygon fill="#FF66C4" points="149.999,143.801 149.999,206.199 212.5,206.199 	"/>
	<polygon fill="#FF33B1" points="212.5,206.199 275,206.199 275,143.801 	"/>
	<polygon fill="#FF009D" points="212.5,206.199 212.5,143.801 275,143.801 	"/>
	<polygon fill="#FF33B1" points="212.5,206.199 212.5,143.801 149.999,143.801 	"/>
	<polygon fill="#FF66C4" points="149.999,206.199 149.999,268.598 212.5,268.598 	"/>
	<polygon fill="#FF009D" points="212.5,268.598 275,268.598 275,206.199 	"/>
	<polygon fill="#FF33B1" points="212.5,268.598 212.5,206.199 275,206.199 	"/>
	<polygon fill="#FF009D" points="212.5,268.598 212.5,206.199 149.999,206.199 	"/>
	<polygon fill="#FF009D" points="212.5,331 212.5,268.598 275,268.598 	"/>
	<polygon fill="#FF99D8" points="212.5,331 212.5,268.598 149.999,268.598 	"/>
</g>
</svg>
