<?xml version="1.0" encoding="utf-8"?>
<!-- Generator: Adobe Illustrator 17.0.0, SVG Export Plug-In . SVG Version: 6.00 Build 0)  -->
<!DOCTYPE svg PUBLIC "-//W3C//DTD SVG 1.1//EN" "http://www.w3.org/Graphics/SVG/1.1/DTD/svg11.dtd">
<svg version="1.1" id="Heart" xmlns="http://www.w3.org/2000/svg" xmlns:xlink="http://www.w3.org/1999/xlink" x="0px" y="0px"
	 width="350px" height="300px" viewBox="0 0 350 300" enable-background="new 0 0 350 300" xml:space="preserve">
<g>
	<polygon fill="#FF33B1" points="125,25 125,75 175,75 	"/>
	<polygon fill="#FF009D" points="275,25 275,75 325,75 	"/>
	<polygon fill="#FF99D8" points="175,75 225,75 225,25 	"/>
	<polygon fill="#FFCCEC" points="25,75 75,75 75,25 	"/>
	<polygon fill="#FF009D" points="225,75 275,75 275,25 	"/>
	<polygon fill="#FF66C4" points="225,75 225,25 275,25 	"/>
	<polygon fill="#FF99D8" points="75,25 75,75 125,75 	"/>
	<polygon fill="#FF66C4" points="125,75 125,25 75,25 	"/>
	<polygon fill="#FF009D" points="125,75 125,125 175,125 	"/>
	<polygon fill="#FF009D" points="175,125 225,125 225,75 	"/>
	<polygon fill="#FF009D" points="175,125 175,75 225,75 	"/>
	<polygon fill="#FF009D" points="225,125 275,125 275,75 	"/>
	<polygon fill="#FF66C4" points="225,125 225,75 275,75 	"/>
	<polygon fill="#FF33B1" points="275,125 325,125 325,75 	"/>
	<polygon fill="#FF33B1" points="275,125 275,75 325,75 	"/>
	<polygon fill="#FF009D" points="275,175 275,125 325,125 	"/>
	<polygon fill="#FF009D" points="225,175 275,175 275,125 	"/>
	<polygon fill="#FF33B1" points="225,175 225,125 275,125 	"/>
	<polygon fill="#FF33B1" points="225,225 225,175 275,175 	"/>
	<polygon fill="#FF66C4" points="175,125 175,75 125,75 	"/>
	<polygon fill="#FF66C4" points="75,75 75,125 125,125 	"/>
	<polygon fill="#FF33B1" points="125,125 125,75 75,75 	"/>
	<polygon fill="#FF66C4" points="25,75 25,125 75,125 	"/>
	<polygon fill="#FF33B1" points="75,125 75,75 25,75 	"/>
	<polygon fill="#FF99D8" points="75,125 75,175 125,175 	"/>
	<polygon fill="#FF66C4" points="125,175 125,125 75,125 	"/>
	<polygon fill="#FF33B1" points="75,175 75,125 25,125 	"/>
	<polygon fill="#FF99D8" points="125,225 125,175 75,175 	"/>
	<polygon fill="#FF66C4" points="125,125 125,175 175,175 	"/>
	<polygon fill="#FF33B1" points="175,175 225,175 225,125 	"/>
	<polygon fill="#FF009D" points="175,175 175,125 225,125 	"/>
	<polygon fill="#FF33B1" points="175,175 175,125 125,125 	"/>
	<polygon fill="#FF66C4" points="125,175 125,225 175,225 	"/>
	<polygon fill="#FF009D" points="175,225 225,225 225,175 	"/>
	<polygon fill="#FF33B1" points="175,225 175,175 225,175 	"/>
	<polygon fill="#FF009D" points="175,225 175,175 125,175 	"/>
	<polygon fill="#FF009D" points="175,275 175,225 225,225 	"/>
	<polygon fill="#FFCCEC" points="175,275 175,225 125,225 	"/>
</g>
</svg>
