<?xml version="1.0" encoding="utf-8"?>
<!DOCTYPE svg PUBLIC "-//W3C//DTD SVG 1.1//EN" "http://www.w3.org/Graphics/SVG/1.1/DTD/svg11.dtd">
<svg version="1.1" id="Heart" xmlns="http://www.w3.org/2000/svg" xmlns:xlink="http://www.w3.org/1999/xlink" x="0px" y="0px"
	 width="300px" height="250px" viewBox="0 0 300 250" enable-background="new 0 0 300 250" xml:space="preserve">
<g>
<polygon fill="#FF33B1" points="100,0 100,50 150,50 "/>
<polygon fill="#FF009D" points="250,0 250,50 300,50 "/>
<polygon fill="#FF99D8" points="150,50 200,50 200,0 "/>
<polygon fill="#FFCCEC" points="0,50 50,50 50,0 "/>
<polygon fill="#FF009D" points="200,50 250,50 250,0 "/>
<polygon fill="#FF66C4" points="200,50 200,0 250,0 "/>
<polygon fill="#FF99D8" points="50,0 50,50 100,50 "/>
<polygon fill="#FF66C4" points="100,50 100,0 50,0 "/>
<polygon fill="#FF009D" points="100,50 100,100 150,100 "/>
<polygon fill="#FF009D" points="150,100 200,100 200,50 "/>
<polygon fill="#FF009D" points="150,100 150,50 200,50 "/>
<polygon fill="#FF009D" points="200,100 250,100 250,50 "/>
<polygon fill="#FF66C4" points="200,100 200,50 250,50 "/>
<polygon fill="#FF33B1" points="250,100 300,100 300,50 "/>
<polygon fill="#FF33B1" points="250,100 250,50 300,50 "/>
<polygon fill="#FF009D" points="250,150 250,100 300,100 "/>
<polygon fill="#FF009D" points="200,150 250,150 250,100 "/>
<polygon fill="#FF33B1" points="200,150 200,100 250,100 "/>
<polygon fill="#FF33B1" points="200,200 200,150 250,150 "/>
<polygon fill="#FF66C4" points="150,100 150,50 100,50 "/>
<polygon fill="#FF66C4" points="50,50 50,100 100,100 "/>
<polygon fill="#FF33B1" points="100,100 100,50 50,50 "/>
<polygon fill="#FF66C4" points="0,50 0,100 50,100 "/>
<polygon fill="#FF33B1" points="50,100 50,50 0,50 "/>
<polygon fill="#FF99D8" points="50,100 50,150 100,150 "/>
<polygon fill="#FF66C4" points="100,150 100,100 50,100 "/>
<polygon fill="#FF33B1" points="50,150 50,100 0,100 "/>
<polygon fill="#FF99D8" points="100,200 100,150 50,150 "/>
<polygon fill="#FF66C4" points="100,100 100,150 150,150 "/>
<polygon fill="#FF33B1" points="150,150 200,150 200,100 "/>
<polygon fill="#FF009D" points="150,150 150,100 200,100 "/>
<polygon fill="#FF33B1" points="150,150 150,100 100,100 "/>
<polygon fill="#FF66C4" points="100,150 100,200 150,200 "/>
<polygon fill="#FF009D" points="150,200 200,200 200,150 "/>
<polygon fill="#FF33B1" points="150,200 150,150 200,150 "/>
<polygon fill="#FF009D" points="150,200 150,150 100,150 "/>
<polygon fill="#FF009D" points="150,250 150,200 200,200 "/>
<polygon fill="#FFCCEC" points="150,250 150,200 100,200 "/>
</g>
</svg>
